<mxfile host="65bd71144e">
    <diagram id="SDUCsIFCprQqo3zhPazO" name="Page-1">
        <mxGraphModel dx="486" dy="467" grid="1" gridSize="10" guides="1" tooltips="1" connect="1" arrows="1" fold="1" page="1" pageScale="1" pageWidth="827" pageHeight="1169" math="0" shadow="0">
            <root>
                <mxCell id="0"/>
                <mxCell id="1" parent="0"/>
                <mxCell id="2" value="Arduino Mega" style="fontStyle=0;whiteSpace=wrap;html=1;fontFamily=Times New Roman;fontSize=13;" parent="1" vertex="1">
                    <mxGeometry x="310" y="330" width="140" height="30" as="geometry"/>
                </mxCell>
                <mxCell id="4" value="Buzzer" style="fontStyle=0;whiteSpace=wrap;html=1;fontFamily=Times New Roman;fontSize=13;" parent="1" vertex="1">
                    <mxGeometry x="50" y="170" width="140" height="30" as="geometry"/>
                </mxCell>
                <mxCell id="5" value="ESP8266" style="fontStyle=0;whiteSpace=wrap;html=1;fontFamily=Times New Roman;fontSize=13;" parent="1" vertex="1">
                    <mxGeometry x="310" y="460" width="140" height="30" as="geometry"/>
                </mxCell>
                <mxCell id="15" value="Âm thanh: tone" style="endArrow=block;html=1;rounded=0;align=center;verticalAlign=bottom;endFill=0;labelBackgroundColor=none;endSize=8;exitX=0;exitY=0;exitDx=0;exitDy=0;entryX=0.5;entryY=1;entryDx=0;entryDy=0;fontFamily=Times New Roman;fontSize=13;fontStyle=0;" parent="1" source="2" target="4" edge="1">
                    <mxGeometry x="-0.3557" y="-43" relative="1" as="geometry">
                        <mxPoint x="330" y="320" as="sourcePoint"/>
                        <mxPoint x="330" y="390" as="targetPoint"/>
                        <mxPoint as="offset"/>
                    </mxGeometry>
                </mxCell>
                <mxCell id="16" value="Digital: output" style="resizable=0;html=1;align=center;verticalAlign=top;labelBackgroundColor=none;fontFamily=Times New Roman;fontSize=13;fontStyle=1" parent="15" connectable="0" vertex="1">
                    <mxGeometry relative="1" as="geometry">
                        <mxPoint x="63" y="-11" as="offset"/>
                    </mxGeometry>
                </mxCell>
                <mxCell id="26" value="Màn hình LCD TFT" style="fontStyle=0;whiteSpace=wrap;html=1;fontFamily=Times New Roman;fontSize=13;" parent="1" vertex="1">
                    <mxGeometry x="370" y="160" width="140" height="30" as="geometry"/>
                </mxCell>
                <mxCell id="29" value="&lt;span&gt;Thông tin: string&lt;/span&gt;" style="endArrow=block;html=1;rounded=0;align=center;verticalAlign=bottom;endFill=0;labelBackgroundColor=none;endSize=8;exitX=0.75;exitY=0;exitDx=0;exitDy=0;entryX=0.59;entryY=1.033;entryDx=0;entryDy=0;fontFamily=Times New Roman;fontSize=13;fontStyle=0;entryPerimeter=0;" parent="1" source="2" target="26" edge="1">
                    <mxGeometry x="0.2357" y="-23" relative="1" as="geometry">
                        <mxPoint x="535" y="210" as="sourcePoint"/>
                        <mxPoint x="510" y="350" as="targetPoint"/>
                        <mxPoint x="-1" as="offset"/>
                    </mxGeometry>
                </mxCell>
                <mxCell id="30" value="SPI" style="resizable=0;html=1;align=center;verticalAlign=top;labelBackgroundColor=none;fontFamily=Times New Roman;fontSize=13;fontStyle=1" parent="29" connectable="0" vertex="1">
                    <mxGeometry relative="1" as="geometry">
                        <mxPoint x="22" y="-10" as="offset"/>
                    </mxGeometry>
                </mxCell>
                <mxCell id="31" value="&lt;br&gt;&lt;div&gt;&lt;span style=&quot;line-height: 11px;&quot;&gt;&lt;div style=&quot;&quot;&gt;&lt;span&gt;&lt;br&gt;&lt;/span&gt;&lt;/div&gt;&lt;div style=&quot;&quot;&gt;&lt;span&gt;&lt;br&gt;&lt;/span&gt;&lt;/div&gt;&lt;br&gt;&lt;br&gt;Serial UART&lt;/span&gt;&lt;/div&gt;" style="endArrow=block;html=1;rounded=0;align=center;verticalAlign=bottom;endFill=0;labelBackgroundColor=none;endSize=8;entryX=0.25;entryY=0;entryDx=0;entryDy=0;exitX=0.25;exitY=1;exitDx=0;exitDy=0;fontFamily=Times New Roman;fontSize=13;fontStyle=1" parent="1" source="2" target="5" edge="1">
                    <mxGeometry x="0.2" y="-15" relative="1" as="geometry">
                        <mxPoint x="450" y="330" as="sourcePoint"/>
                        <mxPoint x="760" y="510" as="targetPoint"/>
                        <mxPoint as="offset"/>
                    </mxGeometry>
                </mxCell>
                <mxCell id="32" value="Dữ liệu cảm biến: string (json)" style="resizable=0;html=1;align=center;verticalAlign=top;labelBackgroundColor=none;fontFamily=Times New Roman;fontSize=13;fontStyle=0" parent="31" connectable="0" vertex="1">
                    <mxGeometry relative="1" as="geometry">
                        <mxPoint x="25" y="-30" as="offset"/>
                    </mxGeometry>
                </mxCell>
                <mxCell id="35" value="Firebase Database" style="fontStyle=0;whiteSpace=wrap;html=1;fontFamily=Times New Roman;fontSize=13;" parent="1" vertex="1">
                    <mxGeometry x="310" y="600" width="140" height="30" as="geometry"/>
                </mxCell>
                <mxCell id="36" value="&lt;div&gt;Firebase set&lt;/div&gt;" style="endArrow=block;html=1;rounded=0;align=center;verticalAlign=bottom;endFill=0;labelBackgroundColor=none;endSize=8;entryX=0.25;entryY=0;entryDx=0;entryDy=0;exitX=0.25;exitY=1;exitDx=0;exitDy=0;fontFamily=Times New Roman;fontSize=13;fontStyle=1" parent="1" source="5" target="35" edge="1">
                    <mxGeometry x="0.2727" y="-15" relative="1" as="geometry">
                        <mxPoint x="460" y="348" as="sourcePoint"/>
                        <mxPoint x="610" y="348" as="targetPoint"/>
                        <mxPoint y="1" as="offset"/>
                    </mxGeometry>
                </mxCell>
                <mxCell id="37" value="Dữ liệu cảm biến: string (json)" style="resizable=0;html=1;align=center;verticalAlign=top;labelBackgroundColor=none;fontFamily=Times New Roman;fontSize=13;fontStyle=0" parent="36" connectable="0" vertex="1">
                    <mxGeometry relative="1" as="geometry">
                        <mxPoint x="25" y="-30" as="offset"/>
                    </mxGeometry>
                </mxCell>
                <mxCell id="PyUKFxqLLR8SMniEjXXt-62" value="Dữ liệu cảm biến: string (json)" style="resizable=0;html=1;align=center;verticalAlign=top;labelBackgroundColor=none;fontFamily=Times New Roman;fontSize=13;fontStyle=0" parent="36" connectable="0" vertex="1">
                    <mxGeometry relative="1" as="geometry">
                        <mxPoint x="-265" y="115" as="offset"/>
                    </mxGeometry>
                </mxCell>
                <mxCell id="43" value="&lt;div&gt;Firebase get&lt;/div&gt;" style="endArrow=block;html=1;rounded=0;align=center;verticalAlign=bottom;endFill=0;labelBackgroundColor=none;endSize=8;entryX=0.75;entryY=1;entryDx=0;entryDy=0;exitX=0.75;exitY=0;exitDx=0;exitDy=0;fontFamily=Times New Roman;fontSize=13;fontStyle=1" parent="1" source="35" target="5" edge="1">
                    <mxGeometry x="-1" y="-45" relative="1" as="geometry">
                        <mxPoint x="645" y="370" as="sourcePoint"/>
                        <mxPoint x="645" y="490" as="targetPoint"/>
                        <mxPoint as="offset"/>
                    </mxGeometry>
                </mxCell>
                <mxCell id="44" value="Thông tin điều khiển: string (json)" style="resizable=0;html=1;align=center;verticalAlign=top;labelBackgroundColor=none;fontFamily=Times New Roman;fontSize=13;fontStyle=0" parent="43" connectable="0" vertex="1">
                    <mxGeometry relative="1" as="geometry">
                        <mxPoint x="35" y="10" as="offset"/>
                    </mxGeometry>
                </mxCell>
                <mxCell id="45" value="&lt;span&gt;&lt;br&gt;&lt;/span&gt;&lt;div&gt;&lt;span style=&quot;line-height: 11px;&quot;&gt;&lt;div&gt;&lt;span&gt;&lt;br&gt;&lt;/span&gt;&lt;/div&gt;&lt;div&gt;&lt;span&gt;&lt;br&gt;&lt;/span&gt;&lt;/div&gt;&lt;br&gt;&lt;br&gt;Serial UART&lt;/span&gt;&lt;/div&gt;" style="endArrow=block;html=1;rounded=0;align=center;verticalAlign=bottom;endFill=0;labelBackgroundColor=none;endSize=8;entryX=0.75;entryY=1;entryDx=0;entryDy=0;exitX=0.75;exitY=0;exitDx=0;exitDy=0;fontFamily=Times New Roman;fontSize=13;fontStyle=1" parent="1" source="5" target="2" edge="1">
                    <mxGeometry x="-0.8" y="-15" relative="1" as="geometry">
                        <mxPoint x="355" y="370" as="sourcePoint"/>
                        <mxPoint x="355" y="470" as="targetPoint"/>
                        <mxPoint as="offset"/>
                    </mxGeometry>
                </mxCell>
                <mxCell id="46" value="Thông tin điều khiển: string (json)" style="resizable=0;html=1;align=center;verticalAlign=top;labelBackgroundColor=none;fontFamily=Times New Roman;fontSize=13;fontStyle=0" parent="45" connectable="0" vertex="1">
                    <mxGeometry relative="1" as="geometry">
                        <mxPoint x="25" as="offset"/>
                    </mxGeometry>
                </mxCell>
                <mxCell id="47" value="Web red node" style="fontStyle=0;whiteSpace=wrap;html=1;fontFamily=Times New Roman;fontSize=13;" parent="1" vertex="1">
                    <mxGeometry x="40" y="600" width="140" height="30" as="geometry"/>
                </mxCell>
                <mxCell id="48" value="&lt;div&gt;nodes&lt;/div&gt;" style="endArrow=block;html=1;rounded=0;align=center;verticalAlign=bottom;endFill=0;labelBackgroundColor=none;endSize=8;fontFamily=Times New Roman;fontSize=13;fontStyle=1;exitX=1;exitY=0;exitDx=0;exitDy=0;exitPerimeter=0;entryX=0;entryY=0;entryDx=0;entryDy=0;" parent="1" source="47" target="35" edge="1">
                    <mxGeometry x="-0.0769" y="-30" relative="1" as="geometry">
                        <mxPoint x="230" y="600" as="sourcePoint"/>
                        <mxPoint x="310" y="608" as="targetPoint"/>
                        <mxPoint as="offset"/>
                    </mxGeometry>
                </mxCell>
                <mxCell id="49" value="Dữ liệu điều khiển, đăng nhập: string (json)" style="resizable=0;html=1;align=center;verticalAlign=top;labelBackgroundColor=none;fontFamily=Times New Roman;fontSize=13;fontStyle=0" parent="48" connectable="0" vertex="1">
                    <mxGeometry relative="1" as="geometry">
                        <mxPoint x="-25" y="-30" as="offset"/>
                    </mxGeometry>
                </mxCell>
                <mxCell id="50" value="" style="endArrow=block;html=1;rounded=0;align=center;verticalAlign=bottom;endFill=0;labelBackgroundColor=none;endSize=8;entryX=1;entryY=1;entryDx=0;entryDy=0;exitX=0;exitY=1;exitDx=0;exitDy=0;fontFamily=Times New Roman;fontSize=13;fontStyle=1;exitPerimeter=0;" parent="1" source="35" target="47" edge="1">
                    <mxGeometry x="-1" y="-45" relative="1" as="geometry">
                        <mxPoint x="425" y="610" as="sourcePoint"/>
                        <mxPoint x="425" y="500" as="targetPoint"/>
                        <mxPoint as="offset"/>
                    </mxGeometry>
                </mxCell>
                <mxCell id="51" value="Thông tin cảm biến, điều khiển, đăng nhập: string (json)" style="resizable=0;html=1;align=center;verticalAlign=top;labelBackgroundColor=none;fontFamily=Times New Roman;fontSize=13;fontStyle=0" parent="50" connectable="0" vertex="1">
                    <mxGeometry relative="1" as="geometry">
                        <mxPoint x="-15" as="offset"/>
                    </mxGeometry>
                </mxCell>
                <mxCell id="PyUKFxqLLR8SMniEjXXt-60" value="gmail" style="rounded=0;whiteSpace=wrap;html=1;" parent="1" vertex="1">
                    <mxGeometry x="40" y="730" width="120" height="60" as="geometry"/>
                </mxCell>
                <mxCell id="PyUKFxqLLR8SMniEjXXt-61" value="" style="endArrow=classic;html=1;rounded=0;exitX=0.109;exitY=1.026;exitDx=0;exitDy=0;exitPerimeter=0;entryX=0.136;entryY=-0.003;entryDx=0;entryDy=0;entryPerimeter=0;" parent="1" source="47" target="PyUKFxqLLR8SMniEjXXt-60" edge="1">
                    <mxGeometry width="50" height="50" relative="1" as="geometry">
                        <mxPoint x="300" y="700" as="sourcePoint"/>
                        <mxPoint x="350" y="650" as="targetPoint"/>
                    </mxGeometry>
                </mxCell>
                <mxCell id="PyUKFxqLLR8SMniEjXXt-63" value="&lt;b&gt;nodes&lt;/b&gt;" style="text;html=1;align=center;verticalAlign=middle;whiteSpace=wrap;rounded=0;" parent="1" vertex="1">
                    <mxGeometry y="690" width="60" height="30" as="geometry"/>
                </mxCell>
                <mxCell id="54" value="" style="curved=1;endArrow=classic;html=1;exitX=0;exitY=0;exitDx=0;exitDy=0;entryX=0;entryY=1;entryDx=0;entryDy=0;" parent="1" source="5" target="5" edge="1">
                    <mxGeometry width="50" height="50" relative="1" as="geometry">
                        <mxPoint x="240" y="390" as="sourcePoint"/>
                        <mxPoint x="290" y="340" as="targetPoint"/>
                        <Array as="points">
                            <mxPoint x="270" y="440"/>
                            <mxPoint x="250" y="490"/>
                        </Array>
                    </mxGeometry>
                </mxCell>
                <mxCell id="55" value="Host WIFI và lưu dữ liệu WIFI người dùng nhập" style="text;html=1;align=center;verticalAlign=middle;whiteSpace=wrap;rounded=0;" parent="1" vertex="1">
                    <mxGeometry x="130" y="450" width="130" height="30" as="geometry"/>
                </mxCell>
                <mxCell id="56" value="String" style="resizable=0;html=1;align=center;verticalAlign=top;labelBackgroundColor=none;fontFamily=Times New Roman;fontSize=13;fontStyle=1" connectable="0" vertex="1" parent="1">
                    <mxGeometry x="194.9996649562693" y="490.00134970692125" as="geometry"/>
                </mxCell>
            </root>
        </mxGraphModel>
    </diagram>
</mxfile>